<?xml version="1.0" encoding="UTF-8"?><svg id="_레이어_1" xmlns="http://www.w3.org/2000/svg" viewBox="0 0 128 128"><defs><style>.cls-1{fill:#fff;}.cls-2{fill:#242d42;}</style></defs><circle class="cls-2" cx="64" cy="64" r="62"/><path class="cls-1" d="m101.05,62.4c1.67,3.26,2.21,6.66,2.17,10.21-.07,6.27-.02,12.55-.02,18.82,0,3.85-2.46,6.3-6.31,6.3-1.61,0-3.21,0-4.82,0-3.59-.02-6.1-2.53-6.13-6.12,0-.38,0-.75,0-1.18h-43.8c-.05.75-.05,1.48-.14,2.2-.35,2.79-2.66,4.97-5.47,5.07-2.06.08-4.13.08-6.2,0-3.03-.12-5.48-2.68-5.5-5.7-.03-7.14-.03-14.28,0-21.42.02-2.87.8-5.58,2.11-8.21-.2-.07-.38-.14-.56-.2-2.58-.76-4.29-2.96-4.36-5.64-.03-1.05-.03-2.09,0-3.14.09-3.22,2.65-5.69,5.87-5.75,1.89-.04,3.72.11,5.41,1.11.81-1.82,1.57-3.59,2.38-5.35.58-1.25,1.2-2.47,1.82-3.7,2.45-4.91,6.54-7.55,11.84-8.43,7.26-1.2,14.57-1.22,21.89-.81,3.31.19,6.61.47,9.82,1.39,4.04,1.16,7.18,3.52,9.11,7.28,1.48,2.87,2.77,5.84,4.15,8.76.13.27.25.54.4.87,2.04-1.15,4.2-1.33,6.41-.98,2.69.42,4.71,2.7,4.84,5.44.05,1.09.04,2.19.01,3.29-.06,2.75-1.72,4.91-4.37,5.7-.17.05-.34.11-.56.18Zm-37.12,24.58c7.78,0,15.56,0,23.34,0,1.5,0,2.12.62,2.12,2.14,0,.84,0,1.68,0,2.52.01,1.67,1,2.67,2.66,2.68,1.53,0,3.06,0,4.59,0,2.23,0,3.1-.86,3.1-3.1,0-6.43-.04-12.85.02-19.28.03-3.72-.87-7.1-3.08-10.11-.43-.58-.53-1.21-.21-1.87.32-.67.91-.94,1.62-.96.66-.02,1.33,0,1.99-.01,1.37-.04,2.44-1.04,2.5-2.4.04-1.07.04-2.14,0-3.21-.04-1.02-.78-2.02-1.76-2.16-1.98-.28-3.92-.21-5.53,1.27-1.29,1.18-2.45.87-3.16-.71-1.54-3.47-3.08-6.93-4.69-10.36-1.92-4.11-5.34-6.17-9.71-6.78-9.17-1.27-18.35-1.28-27.52,0-4.32.61-7.7,2.69-9.68,6.73-.53,1.07-1.1,2.13-1.59,3.22-1.09,2.47-2.14,4.95-3.22,7.43-.52,1.21-1.85,1.63-2.73.75-1.48-1.47-3.25-1.78-5.21-1.65-1.27.09-2.26,1.04-2.31,2.31-.04,1.02-.03,2.04,0,3.06.04,1.39,1.1,2.43,2.5,2.48.56.02,1.12.03,1.68.02.79-.01,1.47.2,1.86.95.4.75.09,1.38-.3,2.06-.75,1.29-1.5,2.6-2.07,3.98-.78,1.91-.93,3.95-.92,6,.02,6.53,0,13.06.01,19.59,0,1.71,1.01,2.72,2.7,2.73,1.68,0,3.37,0,5.05,0,1.66,0,2.64-1.01,2.66-2.68,0-.82,0-1.63,0-2.45,0-1.63.58-2.22,2.2-2.22,7.7,0,15.4,0,23.11,0Z"/><path class="cls-1" d="m64,57.39c-7.16,0-14.33,0-21.49,0-.23,0-.46,0-.69,0-1.38-.08-2.15-1.19-1.61-2.45,1.51-3.53,3.12-7.02,4.62-10.56,1.25-2.96,3.58-4.27,6.63-4.67,7.57-1,15.15-1.03,22.73-.27,1.64.16,3.27.5,4.87.91,1.48.38,2.72,1.29,3.37,2.69,1.87,4.01,3.68,8.05,5.46,12.1.44,1-.25,2.03-1.33,2.22-.3.05-.61.05-.91.05-7.21,0-14.43,0-21.64,0Zm-19.7-3.53h39.36c-.11-.31-.18-.55-.28-.78-1.22-2.61-2.46-5.2-3.65-7.82-.52-1.14-1.37-1.75-2.56-1.93-1.86-.27-3.73-.67-5.6-.71-4.99-.1-9.99-.12-14.98,0-2.1.05-4.19.53-6.27.86-.88.14-1.5.68-1.9,1.5-1.03,2.16-2.1,4.3-3.12,6.46-.36.75-.64,1.54-.99,2.39Z"/><path class="cls-1" d="m83.54,75.62c-1.22,0-2.45.01-3.67,0-2.75-.04-4.81-1.86-5.12-4.5-.29-2.44,1.35-4.69,3.92-5.37,2.49-.66,4.97-1.3,7.47-1.94,3.28-.84,6.28,1.47,6.32,4.87,0,.82.05,1.64-.04,2.45-.3,2.63-2.35,4.44-5.05,4.49-1.27.02-2.55,0-3.82,0Zm-.01-3.45c1.3,0,2.6.02,3.89,0,.94-.02,1.52-.57,1.57-1.51.04-.63.03-1.27,0-1.91-.04-1.26-.89-1.9-2.11-1.59-2.49.64-4.97,1.29-7.45,1.94-.91.24-1.35.89-1.25,1.74.1.82.71,1.32,1.67,1.33,1.22.01,2.44,0,3.67,0Z"/><path class="cls-1" d="m44.39,75.55c-1.5,0-3.02.12-4.51-.03-2.33-.23-4.07-2.04-4.29-4.39-.11-1.11-.11-2.26.06-3.35.47-2.94,3.24-4.72,6.13-4,2.57.64,5.13,1.32,7.68,2.01,2.48.67,4.06,2.92,3.79,5.31-.3,2.59-2.3,4.43-4.96,4.51-1.3.04-2.6,0-3.9,0,0-.02,0-.05,0-.07Zm-.01-3.38c1.3,0,2.6.02,3.9,0,.84-.01,1.43-.54,1.53-1.31.11-.79-.29-1.49-1.08-1.7-2.6-.7-5.2-1.4-7.82-2.04-1.05-.26-1.85.44-1.89,1.53-.03.61-.02,1.22,0,1.83.03,1.12.58,1.68,1.71,1.69,1.22.01,2.44,0,3.67,0Z"/></svg>