<?xml version="1.0" encoding="UTF-8"?><svg id="_레이어_1" xmlns="http://www.w3.org/2000/svg" viewBox="0 0 128 128"><defs><style>.cls-1{fill:#fff;}.cls-2{fill:#242d42;}</style></defs><circle class="cls-2" cx="64" cy="64" r="62"/><path class="cls-1" d="m90,40.61c-2.12,0-4.13-.06-6.14.01-3.44.12-6.13-1.32-8.3-3.88-1.5-1.77-2.58-3.79-3.46-5.91-.21-.49-.46-.63-.97-.63-4.77.02-9.54.02-14.32,0-.48,0-.71.14-.91.6-1.06,2.5-2.34,4.88-4.3,6.83-1.99,1.99-4.36,3.04-7.21,2.99-2.11-.04-4.22,0-6.4,0,0,.35,0,.63,0,.9,0,4.57,0,9.13,0,13.7,0,1.3-.83,2.37-2.03,2.69-1.04.27-2.25-.25-2.8-1.31-.23-.44-.36-.98-.36-1.47-.02-5.62-.02-11.25-.01-16.87,0-1.73,1.15-2.85,2.88-2.85,2.91-.01,5.83-.05,8.74.02,1.58.03,2.79-.58,3.8-1.72,1.3-1.46,2.17-3.19,2.94-4.97.31-.71.59-1.43.92-2.13.49-1.06,1.33-1.6,2.51-1.6,6.24,0,12.49,0,18.73,0,1.27,0,2.15.56,2.69,1.72.78,1.68,1.55,3.37,2.39,5.02.32.64.79,1.21,1.24,1.77,1.05,1.29,2.36,1.96,4.1,1.91,2.81-.08,5.62-.03,8.43-.02,1.97,0,3.05,1.08,3.05,3.07,0,8.46.02,16.92,0,25.38-.03,10.87-4.43,19.81-12.11,27.27-5.16,5.02-11.15,8.79-17.78,11.57-.77.32-1.53.45-2.32.12-8.26-3.45-15.53-8.3-21.34-15.19-4.59-5.44-7.57-11.64-8.51-18.74-.21-1.61-.31-3.24-.33-4.86-.02-1.47,1.21-2.65,2.59-2.65,1.38,0,2.59,1.2,2.59,2.65.05,9.82,4.29,17.66,11.36,24.16,4.18,3.84,8.94,6.78,14.13,9.05.27.12.67.16.93.05,7.45-3.28,14-7.79,19.03-14.29,4.32-5.59,6.57-11.91,6.57-19,0-7.53,0-15.06,0-22.6,0-.23,0-.45,0-.78Z"/><path class="cls-1" d="m64.01,44.06c1.62,0,3.25,0,4.87,0,1.8,0,2.89,1.1,2.9,2.89.01,2.78.03,5.57-.01,8.35-.01.76.23.94.96.93,2.73-.04,5.47-.02,8.2-.02,1.96,0,3.01,1.06,3.02,3.01,0,3.2,0,6.39,0,9.59,0,1.9-1.07,2.97-2.97,2.97-2.71,0-5.41,0-8.12,0q-1.06,0-1.06,1.02c0,2.71,0,5.41,0,8.12,0,1.95-1.07,3.01-3.02,3.01-3.2,0-6.39,0-9.59,0-1.89,0-2.96-1.08-2.97-2.98,0-2.76-.02-5.52.01-8.28,0-.69-.15-.93-.89-.92-2.76.05-5.52.02-8.28.02-1.95,0-3-1.07-3.01-3.02,0-3.2,0-6.39,0-9.59,0-1.89,1.08-2.96,2.98-2.96,2.78,0,5.57-.02,8.35.01.63,0,.84-.15.83-.81-.04-2.78-.02-5.57-.01-8.35,0-1.97,1.05-3,3-3,1.6,0,3.2,0,4.8,0Zm-14.69,22.56c.32,0,.6,0,.88,0,2.76,0,5.52,0,8.28,0,1.85,0,2.91,1.07,2.91,2.94,0,2.76,0,5.52,0,8.28,0,.27,0,.55,0,.84h5.22c0-.33,0-.61,0-.89,0-2.76,0-5.52,0-8.28,0-1.82,1.07-2.89,2.88-2.89,2.79,0,5.57,0,8.36,0,.27,0,.55,0,.81,0v-5.22c-.34,0-.62,0-.9,0-2.76,0-5.52,0-8.28,0-1.8,0-2.87-1.08-2.87-2.9,0-2.79,0-5.57,0-8.36,0-.27,0-.54,0-.79h-5.17c-.03.12-.05.17-.05.21,0,2.99,0,5.98-.01,8.98,0,1.76-1.08,2.85-2.84,2.85-2.79,0-5.57,0-8.36,0-.28,0-.55,0-.87,0v5.22Z"/></svg>