<?xml version="1.0" encoding="UTF-8"?><svg id="_레이어_1" xmlns="http://www.w3.org/2000/svg" viewBox="0 0 128 128"><defs><style>.cls-1{fill:#fff;}.cls-2{fill:#242d42;}</style></defs><circle class="cls-2" cx="64" cy="64" r="62"/><path class="cls-1" d="m25,64.03c0-.99,0-1.99,0-2.98.01-1.47.87-2.36,2.35-2.38,1.48-.02,2.96,0,4.44,0,1.34,0,2.07-.58,2.38-1.87.75-3.08,1.95-5.98,3.59-8.69.76-1.24.64-2.14-.41-3.19-1.01-1.01-2.03-2.02-3.03-3.04-1.04-1.06-1.04-2.27,0-3.33,1.4-1.41,2.8-2.82,4.22-4.22,1.03-1.01,2.25-1.01,3.28,0,1.04,1.02,2.06,2.06,3.09,3.08,1.02,1.01,1.92,1.14,3.13.4,2.73-1.66,5.65-2.87,8.76-3.62,1.25-.3,1.83-1.04,1.84-2.34.01-1.45,0-2.91,0-4.37.01-1.6.88-2.46,2.49-2.46,1.92,0,3.83,0,5.75,0,1.55,0,2.43.87,2.44,2.44.01,1.45,0,2.91,0,4.37,0,1.34.58,2.05,1.89,2.37,3.06.75,5.93,1.93,8.63,3.56,1.3.79,2.17.68,3.25-.39,1.01-1.01,2.02-2.03,3.04-3.03,1.03-1.01,2.25-1.03,3.28-.02,1.44,1.41,2.86,2.83,4.27,4.27,1.01,1.03,1,2.25-.01,3.28-1.03,1.06-2.09,2.09-3.13,3.14-.94.95-1.06,1.87-.37,3.02,1.67,2.76,2.89,5.69,3.65,8.82.29,1.22,1.04,1.81,2.28,1.82,1.46.01,2.91,0,4.37,0,1.66.01,2.51.87,2.51,2.51,0,1.92,0,3.83,0,5.75,0,1.52-.87,2.4-2.39,2.42-1.45.01-2.91,0-4.37,0-1.4.01-2.09.57-2.43,1.92-.76,3.05-1.94,5.93-3.57,8.63-.78,1.29-.67,2.16.42,3.24.99,1,2,1.98,2.98,2.99,1.07,1.1,1.07,2.3,0,3.39-1.38,1.4-2.77,2.79-4.17,4.17-1.06,1.05-2.28,1.05-3.33,0-1.04-1.02-2.06-2.06-3.09-3.08-.99-.98-1.9-1.1-3.07-.39-2.76,1.67-5.69,2.89-8.83,3.64-1.2.29-1.79,1.05-1.8,2.3-.01,1.45,0,2.91,0,4.37,0,1.65-.87,2.49-2.53,2.5-1.89,0-3.78,0-5.67,0-1.6,0-2.46-.87-2.47-2.48,0-1.46,0-2.91,0-4.37-.01-1.29-.6-2.02-1.86-2.32-3.11-.76-6.02-1.96-8.76-3.62-1.18-.71-2.1-.6-3.08.37-1.03,1.02-2.05,2.06-3.09,3.08-1.06,1.05-2.28,1.06-3.34.02-1.42-1.4-2.82-2.8-4.22-4.22-1.04-1.06-1.03-2.27.02-3.33,1.02-1.04,2.06-2.05,3.08-3.09.97-.98,1.09-1.9.37-3.08-1.66-2.73-2.87-5.65-3.63-8.76-.31-1.27-1.04-1.84-2.33-1.85-1.43,0-2.86,0-4.29,0-1.71,0-2.54-.85-2.55-2.55,0-.92,0-1.84,0-2.76Zm21.06-.05c-.01,9.93,7.98,17.95,17.9,17.96,9.91.02,17.94-8,17.96-17.91.02-9.92-7.98-17.94-17.91-17.96-9.92-.02-17.94,7.98-17.96,17.91Z"/></svg>