<?xml version="1.0" encoding="UTF-8"?><svg id="_레이어_1" xmlns="http://www.w3.org/2000/svg" viewBox="0 0 128 128"><defs><style>.cls-1{fill:#fff;}.cls-2{fill:#242d42;}</style></defs><circle class="cls-2" cx="64" cy="64" r="62"/><path class="cls-1" d="m97.2,86.44c.49,1.56.81,3.22.44,4.92-.14.64-.32,1.31-.67,1.85-2.12,3.27-5.02,5.39-9.03,5.41-9.83.06-19.67.03-29.5.01-2.33,0-4.64-.28-6.89-1.07-.07.09-.17.18-.22.29-1.42,3.41-4.14,5.05-7.67,5.19-3.75.14-7.51.14-11.25-.08-4.31-.25-7.59-3.52-8.2-7.83-.1-.7-.17-1.42-.17-2.13-.01-8.7-.01-17.4,0-26.09,0-4.92,3.2-8.86,8-9.85.79-.16,1.63-.2,2.44-.2,4.73-.02,9.46,0,14.2-.01,1.07,0,2.12-.03,3.02.78,1.74-3.63,3.45-7.17,5.15-10.71,1.1-2.28,2.21-4.56,3.27-6.86.21-.46.33-1,.34-1.51.03-2.54.06-5.08,0-7.61-.05-2.33,1.07-3.95,3.01-5,2.66-1.45,5.4-1.34,8.06,0,3.75,1.9,5.7,5.13,6.45,9.17.56,3,.05,5.95-.42,8.9-.37,2.29-.85,4.57-1.28,6.85-.04.2-.04.41-.06.7.37,0,.68,0,.99,0,5.9,0,11.79,0,17.69.03,2.06,0,3.96.59,5.67,1.75,4.63,3.15,3.89,8.55,1.97,11.62-.26.41-.33.66-.02,1.09,2.22,3.04,2.23,8.85-1.94,11.44-.45.28-.39.6-.32,1.01.42,2.33.2,4.54-1.39,6.43-.47.56-1.07,1-1.65,1.53Zm-24.5,6.85c4.89,0,9.78-.03,14.67.02,1.69.02,3.02-.67,4.18-1.77,1.2-1.14,1.17-3.05,0-4.24-1.53-1.57-1.1-3.67.93-4.56.67-.3,1.36-.6,1.97-1,.29-.19.56-.6.6-.94.11-1.05.04-2.08-.5-3.07-.8-1.46-.13-3.13,1.41-3.82.46-.2.92-.4,1.36-.65.9-.5,1.33-1.22,1.34-2.32,0-1.4-.63-2.17-1.85-2.73-2.06-.94-2.29-3.28-.53-4.68.46-.36.93-.7,1.37-1.08,1.12-.99,1.14-2.32.87-3.59-.25-1.21-1.31-1.66-2.42-1.87-.57-.11-1.16-.14-1.74-.14-5.74,0-11.47,0-17.21,0-1.43,0-2.86.02-4.28,0-1.65-.04-2.89-1.56-2.62-3.18.15-.88.33-1.77.48-2.65.69-4.03,1.42-8.06,2.05-12.1.3-1.96.02-3.91-.86-5.72-1.02-2.1-3.15-3.23-5.33-2.88-.58.09-.86.32-.85.98.03,2.72.05,5.45,0,8.17-.02.76-.19,1.58-.51,2.27-3.27,6.89-6.6,13.76-9.87,20.65-.53,1.12-1.19,2.05-2.3,2.61-.48.24-.63.59-.63,1.13.02,8.46.02,16.92,0,25.38,0,.62.19.96.78,1.05,1.69.26,3.38.69,5.08.72,4.81.1,9.62.03,14.44.03Zm-25.59-31.08c-4.76,0-9.41-.06-14.06.03-1.6.03-2.79,1.01-3.31,2.55-.26.76-.38,1.6-.38,2.4-.03,8.54-.02,17.08-.01,25.62,0,.42.01.85.06,1.27.24,2.23,1.8,3.64,4.04,3.65,3.3.01,6.61,0,9.91.01,1.56,0,2.68-.69,3.18-2.14.32-.93.55-1.95.55-2.93.04-9.86.02-19.72.02-29.59,0-.26,0-.52,0-.88Z"/><path class="cls-1" d="m43.53,87.98c0,2.9-2.4,5.3-5.3,5.31-2.92,0-5.36-2.42-5.35-5.35,0-2.93,2.44-5.32,5.39-5.3,2.9.02,5.27,2.42,5.26,5.33Z"/></svg>